<svg version="1.1" id="Layer_1" xmlns="http://www.w3.org/2000/svg" xmlns:xlink="http://www.w3.org/1999/xlink" x="0px" y="0px"
	 width="100%" viewBox="0 0 500 500" enable-background="new 0 0 500 500" xml:space="preserve">
<path fill="#000000" opacity="1.000000" stroke="none" 
	d="
M293.000000,501.000000 
	C195.333359,501.000000 98.166710,501.000000 1.000052,501.000000 
	C1.000035,334.333405 1.000035,167.666794 1.000017,1.000142 
	C167.666565,1.000094 334.333130,1.000094 500.999756,1.000047 
	C500.999847,167.666519 500.999847,334.333038 500.999939,500.999786 
	C431.833344,501.000000 362.666656,501.000000 293.000000,501.000000 
M416.309692,291.499878 
	C416.309692,302.434235 416.309692,313.368622 416.309692,324.553284 
	C413.786621,324.553284 411.967957,324.553314 410.149292,324.553314 
	C387.989716,324.553314 365.829987,324.521912 343.670868,324.621399 
	C342.137085,324.628296 340.607727,325.609589 339.076294,326.137726 
	C340.499023,326.756836 341.919342,327.909119 343.344879,327.915619 
	C367.503296,328.026459 391.662354,328.001038 415.821259,327.977753 
	C417.071625,327.976532 418.321716,327.725037 419.794495,327.566071 
	C419.794495,301.879913 419.819580,276.571075 419.725647,251.262680 
	C419.720581,249.895065 418.717621,248.531158 418.179108,247.165543 
	C417.555969,248.614471 416.407593,250.057709 416.391815,251.513214 
	C416.250854,264.507538 416.309723,277.503998 416.309692,291.499878 
M129.705002,306.853027 
	C126.194115,302.326141 122.714073,297.774902 119.166130,293.277252 
	C110.973976,282.892120 109.244110,285.538177 119.039322,273.901672 
	C122.747398,269.496521 126.426430,265.066986 130.266510,260.471680 
	C125.947716,259.102631 123.394302,260.540253 120.955406,263.608948 
	C115.100784,270.975525 108.908257,278.073547 102.059616,286.222931 
	C102.059616,276.859100 102.059616,268.659576 102.059616,260.228088 
	C100.174316,260.228088 98.791954,260.228088 97.234543,260.228088 
	C97.234543,275.817444 97.234543,291.228333 97.234543,306.755493 
	C98.828140,306.755493 100.211998,306.755493 101.906799,306.755493 
	C101.863426,299.504456 100.591934,291.974854 108.072456,287.712341 
	C112.505501,293.041992 117.086693,298.250305 121.298958,303.741669 
	C123.371155,306.443085 125.705902,307.512207 129.705002,306.853027 
M260.196014,296.575043 
	C264.334076,296.043549 268.462494,295.168884 272.612213,295.052368 
	C281.125641,294.813293 281.224884,294.947723 284.072083,303.136322 
	C285.147156,306.228119 286.479370,308.146088 290.394226,306.471222 
	C284.963623,291.593231 279.558685,276.681244 273.999939,261.826843 
	C273.680176,260.972321 272.070221,260.054688 271.126312,260.119629 
	C269.979828,260.198517 268.363098,261.028839 267.896667,261.992371 
	C266.459106,264.961975 265.445923,268.140228 264.315521,271.254730 
	C260.047882,283.013123 255.799088,294.778351 251.547882,306.528168 
	C255.233154,307.932465 256.907562,306.590240 257.748322,303.446259 
	C258.302826,301.372681 259.191498,299.388428 260.196014,296.575043 
M182.243790,302.085754 
	C177.167511,288.094757 172.091232,274.103760 166.571030,258.889252 
	C164.430344,260.211121 161.786438,260.876343 161.227921,262.338287 
	C155.626831,276.999390 150.368423,291.791412 144.994278,306.599579 
	C148.101761,307.565613 149.913055,307.171356 151.137527,303.768219 
	C154.815781,293.545105 152.340057,295.134583 163.965073,294.985321 
	C164.795715,294.974670 165.626617,294.983948 166.457397,294.983948 
	C174.714462,294.983948 174.889557,294.925995 177.534149,302.917389 
	C178.675888,306.367462 180.114578,308.102112 183.856064,306.546753 
	C183.434280,305.297424 183.012207,304.047241 182.243790,302.085754 
M85.048378,226.500000 
	C85.048378,210.194580 85.048378,193.889160 85.048378,177.270477 
	C101.779724,177.270477 118.095146,177.270493 134.410568,177.270477 
	C142.575272,177.270462 150.741348,177.342484 158.903152,177.188690 
	C160.059464,177.166901 161.195053,176.045837 162.340240,175.433563 
	C162.124176,175.075912 161.908112,174.718277 161.692047,174.360626 
	C135.137054,174.360626 108.582054,174.360626 82.282646,174.360626 
	C82.282646,201.332794 82.282646,227.936646 82.282646,254.734329 
	C83.248413,254.563599 84.415558,254.469574 84.419441,254.340561 
	C84.688545,245.395493 84.864555,236.447632 85.048378,226.500000 
M203.248611,274.406189 
	C206.744339,283.898987 210.146240,293.428406 213.825378,302.849548 
	C214.460785,304.476624 216.034073,306.358185 217.589706,306.877655 
	C220.967651,308.005585 221.052734,304.647888 221.798492,302.687866 
	C224.510941,295.559052 227.070190,288.371796 229.665115,281.198578 
	C232.169571,274.275482 234.646729,267.342560 237.135971,260.413757 
	C233.510147,259.183594 232.016281,260.463135 230.940170,263.536499 
	C226.787643,275.395966 222.382401,287.166901 217.696060,299.998383 
	C213.069229,287.302399 208.739594,275.719238 204.662933,264.047699 
	C203.497147,260.710022 202.114624,258.783112 198.285233,260.523193 
	C199.869431,264.918488 201.444138,269.287476 203.248611,274.406189 
M323.229248,300.368195 
	C323.229248,302.487244 323.229248,304.606293 323.229248,307.040344 
	C325.154572,306.938202 326.528625,306.865326 328.067291,306.783691 
	C328.067291,300.575470 328.191559,294.757141 328.017029,288.947784 
	C327.924042,285.851471 329.161163,284.853302 332.126221,284.906525 
	C338.784546,285.026123 345.446960,284.932312 352.107452,284.885559 
	C352.550354,284.882446 352.990906,284.544678 353.398132,284.376801 
	C353.398132,283.011444 353.398132,281.749329 353.398132,280.183105 
	C344.911316,280.183105 336.676147,280.183105 328.066986,280.183105 
	C328.066986,276.418579 328.316711,272.926666 328.000793,269.486633 
	C327.643738,265.598633 329.227722,264.666077 332.859222,264.776184 
	C340.798737,265.016968 348.750580,264.850677 357.005341,264.850677 
	C356.898041,262.902985 356.822266,261.527405 356.751984,260.252014 
	C345.426239,260.252014 334.511688,260.252014 323.229279,260.252014 
	C323.229279,273.486786 323.229279,286.441956 323.229248,300.368195 
M398.045074,262.242889 
	C394.827759,267.549255 391.610443,272.855591 388.004272,278.803284 
	C384.650299,273.239441 381.597717,268.545380 378.942902,263.636200 
	C377.288879,260.577698 375.308197,259.108398 371.007355,260.558105 
	C381.022797,274.378113 390.100616,288.519135 384.823730,307.086273 
	C387.461975,306.911804 388.830963,306.821289 390.330322,306.722137 
	C390.330322,301.674561 390.604767,297.005798 390.260651,292.383057 
	C389.833984,286.651489 391.319031,281.757568 394.569275,277.019470 
	C398.197815,271.729919 401.235321,266.034912 404.530060,260.516388 
	C404.301758,260.175385 404.073456,259.834381 403.845154,259.493347 
	C402.049835,260.190033 400.254486,260.886719 398.045074,262.242889 
M304.683594,292.497345 
	C304.683594,297.255798 304.683594,302.014221 304.683594,307.024536 
	C306.543091,306.899323 307.786072,306.815582 309.112610,306.726257 
	C309.112610,291.140472 309.112610,275.861908 309.112610,260.295654 
	C307.634247,260.295654 306.267090,260.295654 304.683594,260.295654 
	C304.683594,270.886963 304.683594,281.192261 304.683594,292.497345 
z"/>
<path fill="#D8D8D8" opacity="1.000000" stroke="none" 
	d="
M416.309692,290.999878 
	C416.309723,277.503998 416.250854,264.507538 416.391815,251.513214 
	C416.407593,250.057709 417.555969,248.614471 418.179138,247.165543 
	C418.717621,248.531158 419.720581,249.895065 419.725647,251.262680 
	C419.819580,276.571075 419.794495,301.879913 419.794495,327.566071 
	C418.321716,327.725037 417.071625,327.976532 415.821259,327.977753 
	C391.662354,328.001038 367.503296,328.026459 343.344879,327.915619 
	C341.919342,327.909119 340.499023,326.756836 339.076294,326.137726 
	C340.607727,325.609589 342.137085,324.628296 343.670868,324.621399 
	C365.829987,324.521912 387.989716,324.553314 410.149292,324.553314 
	C411.967957,324.553314 413.786621,324.553284 416.309692,324.553284 
	C416.309692,313.368622 416.309692,302.434235 416.309692,290.999878 
z"/>
<path fill="#F2F2F2" opacity="1.000000" stroke="none" 
	d="
M129.319550,306.932251 
	C125.705902,307.512207 123.371155,306.443085 121.298958,303.741669 
	C117.086693,298.250305 112.505501,293.041992 108.072456,287.712341 
	C100.591934,291.974854 101.863426,299.504456 101.906799,306.755493 
	C100.211998,306.755493 98.828140,306.755493 97.234543,306.755493 
	C97.234543,291.228333 97.234543,275.817444 97.234543,260.228088 
	C98.791954,260.228088 100.174316,260.228088 102.059616,260.228088 
	C102.059616,268.659576 102.059616,276.859100 102.059616,286.222931 
	C108.908257,278.073547 115.100784,270.975525 120.955406,263.608948 
	C123.394302,260.540253 125.947716,259.102631 130.266510,260.471680 
	C126.426430,265.066986 122.747398,269.496521 119.039322,273.901672 
	C109.244110,285.538177 110.973976,282.892120 119.166130,293.277252 
	C122.714073,297.774902 126.194115,302.326141 129.319550,306.932251 
z"/>
<path fill="#F4F4F4" opacity="1.000000" stroke="none" 
	d="
M260.063293,296.969604 
	C259.191498,299.388428 258.302826,301.372681 257.748322,303.446259 
	C256.907562,306.590240 255.233154,307.932465 251.547882,306.528168 
	C255.799088,294.778351 260.047882,283.013123 264.315521,271.254730 
	C265.445923,268.140228 266.459106,264.961975 267.896667,261.992371 
	C268.363098,261.028839 269.979828,260.198517 271.126312,260.119629 
	C272.070221,260.054688 273.680176,260.972321 273.999939,261.826843 
	C279.558685,276.681244 284.963623,291.593231 290.394226,306.471222 
	C286.479370,308.146088 285.147156,306.228119 284.072083,303.136322 
	C281.224884,294.947723 281.125641,294.813293 272.612213,295.052368 
	C268.462494,295.168884 264.334076,296.043549 260.063293,296.969604 
M276.105652,289.991547 
	C277.021332,289.936707 277.937012,289.881866 279.331329,289.798370 
	C276.565643,282.311615 273.973541,275.294800 270.940826,267.085175 
	C267.778564,275.554352 265.110840,282.699066 262.387909,289.991638 
	C266.857269,289.991638 271.022766,289.991638 276.105652,289.991547 
z"/>
<path fill="#F2F2F2" opacity="1.000000" stroke="none" 
	d="
M182.416962,302.441406 
	C183.012207,304.047241 183.434280,305.297424 183.856064,306.546753 
	C180.114578,308.102112 178.675888,306.367462 177.534149,302.917389 
	C174.889557,294.925995 174.714462,294.983948 166.457397,294.983948 
	C165.626617,294.983948 164.795715,294.974670 163.965073,294.985321 
	C152.340057,295.134583 154.815781,293.545105 151.137527,303.768219 
	C149.913055,307.171356 148.101761,307.565613 144.994278,306.599579 
	C150.368423,291.791412 155.626831,276.999390 161.227921,262.338287 
	C161.786438,260.876343 164.430344,260.211121 166.571030,258.889252 
	C172.091232,274.103760 177.167511,288.094757 182.416962,302.441406 
M171.233109,285.640289 
	C169.097870,279.786224 166.962631,273.932159 164.423035,266.969482 
	C161.322403,275.427155 158.685059,282.621063 156.000275,289.944366 
	C161.721207,289.944366 166.963837,289.944366 172.510345,289.944366 
	C172.171753,288.593994 171.898895,287.505859 171.233109,285.640289 
z"/>
<path fill="#FBFBFB" opacity="1.000000" stroke="none" 
	d="
M85.048386,227.000000 
	C84.864555,236.447632 84.688545,245.395493 84.419441,254.340561 
	C84.415558,254.469574 83.248413,254.563599 82.282646,254.734329 
	C82.282646,227.936646 82.282646,201.332794 82.282646,174.360626 
	C108.582054,174.360626 135.137054,174.360626 161.692047,174.360626 
	C161.908112,174.718277 162.124176,175.075912 162.340240,175.433563 
	C161.195053,176.045837 160.059464,177.166901 158.903152,177.188690 
	C150.741348,177.342484 142.575272,177.270462 134.410568,177.270477 
	C118.095146,177.270493 101.779724,177.270477 85.048378,177.270477 
	C85.048378,193.889160 85.048378,210.194580 85.048386,227.000000 
z"/>
<path fill="#F2F2F2" opacity="1.000000" stroke="none" 
	d="
M203.133728,274.031311 
	C201.444138,269.287476 199.869431,264.918488 198.285233,260.523193 
	C202.114624,258.783112 203.497147,260.710022 204.662933,264.047699 
	C208.739594,275.719238 213.069229,287.302399 217.696060,299.998383 
	C222.382401,287.166901 226.787643,275.395966 230.940170,263.536499 
	C232.016281,260.463135 233.510147,259.183594 237.135971,260.413757 
	C234.646729,267.342560 232.169571,274.275482 229.665115,281.198578 
	C227.070190,288.371796 224.510941,295.559052 221.798492,302.687866 
	C221.052734,304.647888 220.967651,308.005585 217.589706,306.877655 
	C216.034073,306.358185 214.460785,304.476624 213.825378,302.849548 
	C210.146240,293.428406 206.744339,283.898987 203.133728,274.031311 
z"/>
<path fill="#EEEEEE" opacity="1.000000" stroke="none" 
	d="
M323.229248,299.882629 
	C323.229279,286.441956 323.229279,273.486786 323.229279,260.252014 
	C334.511688,260.252014 345.426239,260.252014 356.751984,260.252014 
	C356.822266,261.527405 356.898041,262.902985 357.005341,264.850677 
	C348.750580,264.850677 340.798737,265.016968 332.859222,264.776184 
	C329.227722,264.666077 327.643738,265.598633 328.000793,269.486633 
	C328.316711,272.926666 328.066986,276.418579 328.066986,280.183105 
	C336.676147,280.183105 344.911316,280.183105 353.398132,280.183105 
	C353.398132,281.749329 353.398132,283.011444 353.398132,284.376801 
	C352.990906,284.544678 352.550354,284.882446 352.107452,284.885559 
	C345.446960,284.932312 338.784546,285.026123 332.126221,284.906525 
	C329.161163,284.853302 327.924042,285.851471 328.017029,288.947784 
	C328.191559,294.757141 328.067291,300.575470 328.067291,306.783691 
	C326.528625,306.865326 325.154572,306.938202 323.229248,307.040344 
	C323.229248,304.606293 323.229248,302.487244 323.229248,299.882629 
z"/>
<path fill="#F5F5F5" opacity="1.000000" stroke="none" 
	d="
M398.252136,261.913147 
	C400.254486,260.886719 402.049835,260.190033 403.845154,259.493347 
	C404.073456,259.834381 404.301758,260.175385 404.530060,260.516388 
	C401.235321,266.034912 398.197815,271.729919 394.569275,277.019470 
	C391.319031,281.757568 389.833984,286.651489 390.260651,292.383057 
	C390.604767,297.005798 390.330322,301.674561 390.330322,306.722137 
	C388.830963,306.821289 387.461975,306.911804 384.823730,307.086273 
	C390.100616,288.519135 381.022797,274.378113 371.007355,260.558105 
	C375.308197,259.108398 377.288879,260.577698 378.942902,263.636200 
	C381.597717,268.545380 384.650299,273.239441 388.004272,278.803284 
	C391.610443,272.855591 394.827759,267.549255 398.252136,261.913147 
z"/>
<path fill="#FFFFFF" opacity="1.000000" stroke="none" 
	d="
M304.683594,291.997437 
	C304.683594,281.192261 304.683594,270.886963 304.683594,260.295654 
	C306.267090,260.295654 307.634247,260.295654 309.112610,260.295654 
	C309.112610,275.861908 309.112610,291.140472 309.112610,306.726257 
	C307.786072,306.815582 306.543091,306.899323 304.683594,307.024536 
	C304.683594,302.014221 304.683594,297.255798 304.683594,291.997437 
z"/>
<path fill="#070707" opacity="1.000000" stroke="none" 
	d="
M275.646973,289.991577 
	C271.022766,289.991638 266.857269,289.991638 262.387909,289.991638 
	C265.110840,282.699066 267.778564,275.554352 270.940826,267.085175 
	C273.973541,275.294800 276.565643,282.311615 279.331329,289.798370 
	C277.937012,289.881866 277.021332,289.936707 275.646973,289.991577 
z"/>
<path fill="#080808" opacity="1.000000" stroke="none" 
	d="
M171.429581,286.028992 
	C171.898895,287.505859 172.171753,288.593994 172.510345,289.944366 
	C166.963837,289.944366 161.721207,289.944366 156.000275,289.944366 
	C158.685059,282.621063 161.322403,275.427155 164.423035,266.969482 
	C166.962631,273.932159 169.097870,279.786224 171.429581,286.028992 
z"/>
</svg>